<svg width="43" height="15" viewBox="0 0 43 15" fill="none" xmlns="http://www.w3.org/2000/svg">
<path d="M41.9626 7.504C41.9626 7.65333 41.8879 7.728 41.7386 7.728H41.0826C40.9332 7.728 40.8586 7.65333 40.8586 7.504V0.224C40.8586 0.0746667 40.9332 0 41.0826 0H41.7386C41.8879 0 41.9626 0.0746667 41.9626 0.224V7.504ZM37.9946 3.84C37.9946 4.34133 37.8932 4.80533 37.6906 5.232C37.4986 5.648 37.2319 6.01067 36.8906 6.32C36.5492 6.62933 36.1492 6.87467 35.6906 7.056C35.2319 7.22667 34.7412 7.312 34.2186 7.312C33.7066 7.312 33.2266 7.22667 32.7786 7.056C32.3412 6.88533 31.9519 6.65067 31.6106 6.352C31.2799 6.04267 31.0186 5.67467 30.8266 5.248C30.6346 4.82133 30.5386 4.352 30.5386 3.84C30.5386 3.296 30.6346 2.81067 30.8266 2.384C31.0186 1.94667 31.2799 1.57867 31.6106 1.28C31.9519 0.981333 32.3412 0.752 32.7786 0.592C33.2266 0.432 33.7066 0.352 34.2186 0.352C34.6986 0.352 35.1626 0.432 35.6106 0.592C36.0692 0.752 36.4746 0.981333 36.8266 1.28C37.1786 1.57867 37.4612 1.94667 37.6746 2.384C37.8879 2.81067 37.9946 3.296 37.9946 3.84ZM36.8746 3.824C36.8746 3.42933 36.7999 3.07733 36.6506 2.768C36.5012 2.45867 36.3039 2.20267 36.0586 2C35.8132 1.79733 35.5306 1.64267 35.2106 1.536C34.8906 1.42933 34.5599 1.376 34.2186 1.376C33.8666 1.376 33.5306 1.42933 33.2106 1.536C32.9012 1.632 32.6292 1.78133 32.3946 1.984C32.1706 2.18667 31.9892 2.44267 31.8506 2.752C31.7226 3.06133 31.6586 3.41867 31.6586 3.824C31.6586 4.208 31.7226 4.55467 31.8506 4.864C31.9786 5.16267 32.1546 5.424 32.3786 5.648C32.6132 5.86133 32.8852 6.02667 33.1946 6.144C33.5039 6.25067 33.8452 6.304 34.2186 6.304C34.5599 6.304 34.8906 6.25067 35.2106 6.144C35.5306 6.02667 35.8132 5.86133 36.0586 5.648C36.3039 5.43467 36.5012 5.17333 36.6506 4.864C36.7999 4.55467 36.8746 4.208 36.8746 3.824ZM42.2986 14.608C42.2986 14.6613 42.2719 14.704 42.2186 14.736C42.1759 14.7787 42.1332 14.8 42.0906 14.8H34.0426C33.5412 14.8 33.2106 14.704 33.0506 14.512C32.9012 14.3307 32.8266 14.016 32.8266 13.568V12.368C32.8266 11.92 32.9172 11.6213 33.0986 11.472C33.2906 11.312 33.6266 11.232 34.1066 11.232H40.5066C40.6559 11.232 40.7519 11.2107 40.7946 11.168C40.8372 11.1253 40.8586 11.024 40.8586 10.864V9.952C40.8586 9.792 40.8372 9.69067 40.7946 9.648C40.7626 9.60533 40.6719 9.584 40.5226 9.584H33.0186C32.9652 9.584 32.9119 9.568 32.8586 9.536C32.8159 9.504 32.7946 9.46133 32.7946 9.408V8.832C32.7946 8.77867 32.8159 8.736 32.8586 8.704C32.9119 8.672 32.9652 8.656 33.0186 8.656H40.6986C40.9546 8.656 41.1626 8.67733 41.3226 8.72C41.4826 8.752 41.6106 8.81067 41.7066 8.896C41.8026 8.98133 41.8666 9.104 41.8986 9.264C41.9412 9.41333 41.9626 9.6 41.9626 9.824V11.024C41.9626 11.472 41.8666 11.776 41.6746 11.936C41.4932 12.0853 41.1626 12.16 40.6826 12.16H34.2666C34.1172 12.16 34.0212 12.1813 33.9786 12.224C33.9466 12.2667 33.9306 12.368 33.9306 12.528V13.504C33.9306 13.6533 33.9519 13.7493 33.9946 13.792C34.0372 13.8453 34.1332 13.872 34.2826 13.872H42.0746C42.1279 13.872 42.1759 13.888 42.2186 13.92C42.2719 13.952 42.2986 13.9947 42.2986 14.048V14.608Z" fill="black"/>
<path d="M27.0436 11.888C27.0436 12.3467 26.9209 12.7573 26.6756 13.12C26.4303 13.4827 26.0943 13.7867 25.6676 14.032C25.2516 14.288 24.7609 14.48 24.1956 14.608C23.6409 14.7467 23.0436 14.816 22.4036 14.816C21.7103 14.816 21.0809 14.7467 20.5156 14.608C19.9503 14.48 19.4649 14.288 19.0596 14.032C18.6543 13.7867 18.3396 13.4827 18.1156 13.12C17.8916 12.7573 17.7796 12.3467 17.7796 11.888C17.7796 11.44 17.8916 11.04 18.1156 10.688C18.3396 10.3253 18.6543 10.0213 19.0596 9.776C19.4649 9.52 19.9503 9.328 20.5156 9.2C21.0809 9.06133 21.7103 8.992 22.4036 8.992C23.0436 8.992 23.6409 9.06133 24.1956 9.2C24.7609 9.328 25.2516 9.51467 25.6676 9.76C26.0943 10.0053 26.4303 10.3093 26.6756 10.672C26.9209 11.024 27.0436 11.4293 27.0436 11.888ZM25.9076 11.936C25.9076 11.616 25.8116 11.3333 25.6196 11.088C25.4276 10.8427 25.1663 10.64 24.8356 10.48C24.5156 10.3093 24.1423 10.1813 23.7156 10.096C23.2889 10 22.8463 9.952 22.3876 9.952C21.8756 9.952 21.4063 10 20.9796 10.096C20.5529 10.1813 20.1849 10.3093 19.8756 10.48C19.5769 10.64 19.3423 10.8427 19.1716 11.088C19.0009 11.3333 18.9156 11.616 18.9156 11.936C18.9156 12.2453 19.0009 12.5227 19.1716 12.768C19.3423 13.0027 19.5769 13.2 19.8756 13.36C20.1849 13.52 20.5529 13.6427 20.9796 13.728C21.4063 13.8133 21.8756 13.856 22.3876 13.856C22.8463 13.856 23.2889 13.8133 23.7156 13.728C24.1423 13.6427 24.5156 13.52 24.8356 13.36C25.1663 13.2 25.4276 13.0027 25.6196 12.768C25.8116 12.5227 25.9076 12.2453 25.9076 11.936ZM20.0036 0.576C20.0036 1.35467 19.9236 2.08 19.7636 2.752C19.8916 3.2 20.0676 3.62667 20.2916 4.032C20.5263 4.43733 20.7983 4.816 21.1076 5.168C21.4169 5.52 21.7529 5.84 22.1156 6.128C22.4889 6.40533 22.8783 6.64 23.2836 6.832C23.3476 6.864 23.3743 6.912 23.3636 6.976C23.3636 7.02933 23.3529 7.07733 23.3316 7.12L22.9956 7.648C22.9636 7.70133 22.9263 7.73867 22.8836 7.76C22.8409 7.78133 22.7716 7.76533 22.6756 7.712C22.4303 7.584 22.1476 7.41333 21.8276 7.2C21.5183 6.976 21.2036 6.71467 20.8836 6.416C20.5636 6.11733 20.2596 5.792 19.9716 5.44C19.6836 5.07733 19.4436 4.704 19.2516 4.32C18.8996 5.13067 18.4249 5.86667 17.8276 6.528C17.2303 7.18933 16.5316 7.78133 15.7316 8.304C15.6783 8.336 15.6196 8.35733 15.5556 8.368C15.4916 8.37867 15.4383 8.35733 15.3956 8.304L14.9956 7.776C14.9636 7.73333 14.9583 7.68 14.9796 7.616C15.0009 7.552 15.0383 7.504 15.0916 7.472C16.3609 6.69333 17.3156 5.712 17.9556 4.528C18.5956 3.344 18.9049 2.02133 18.8836 0.56C18.8836 0.389333 18.9476 0.304 19.0756 0.304L19.8276 0.352C19.9449 0.352 20.0036 0.426667 20.0036 0.576ZM25.8116 3.456V0.224C25.8116 0.0746667 25.8863 0 26.0356 0H26.6916C26.8409 0 26.9156 0.0746667 26.9156 0.224V8.672C26.9156 8.82133 26.8409 8.896 26.6916 8.896H26.0356C25.8863 8.896 25.8116 8.82133 25.8116 8.672V4.416H22.5316C22.3929 4.416 22.3236 4.352 22.3236 4.224V3.648C22.3236 3.52 22.3929 3.456 22.5316 3.456H25.8116Z" fill="black"/>
<path d="M11.5008 11.888C11.5008 12.3467 11.3781 12.7573 11.1328 13.12C10.8875 13.4827 10.5515 13.7867 10.1248 14.032C9.7088 14.288 9.21813 14.48 8.6528 14.608C8.09813 14.7467 7.5008 14.816 6.8608 14.816C6.16747 14.816 5.53813 14.7467 4.9728 14.608C4.40747 14.48 3.92213 14.288 3.5168 14.032C3.11147 13.7867 2.7968 13.4827 2.5728 13.12C2.3488 12.7573 2.2368 12.3467 2.2368 11.888C2.2368 11.44 2.3488 11.04 2.5728 10.688C2.7968 10.3253 3.11147 10.0213 3.5168 9.776C3.92213 9.52 4.40747 9.328 4.9728 9.2C5.53813 9.06133 6.16747 8.992 6.8608 8.992C7.5008 8.992 8.09813 9.06133 8.6528 9.2C9.21813 9.328 9.7088 9.51467 10.1248 9.76C10.5515 10.0053 10.8875 10.3093 11.1328 10.672C11.3781 11.024 11.5008 11.4293 11.5008 11.888ZM10.3648 11.936C10.3648 11.616 10.2688 11.3333 10.0768 11.088C9.8848 10.8427 9.62347 10.64 9.2928 10.48C8.9728 10.3093 8.59947 10.1813 8.1728 10.096C7.74613 10 7.30347 9.952 6.8448 9.952C6.3328 9.952 5.86347 10 5.4368 10.096C5.01013 10.1813 4.64213 10.3093 4.3328 10.48C4.03413 10.64 3.79947 10.8427 3.6288 11.088C3.45813 11.3333 3.3728 11.616 3.3728 11.936C3.3728 12.2453 3.45813 12.5227 3.6288 12.768C3.79947 13.0027 4.03413 13.2 4.3328 13.36C4.64213 13.52 5.01013 13.6427 5.4368 13.728C5.86347 13.8133 6.3328 13.856 6.8448 13.856C7.30347 13.856 7.74613 13.8133 8.1728 13.728C8.59947 13.6427 8.9728 13.52 9.2928 13.36C9.62347 13.2 9.8848 13.0027 10.0768 12.768C10.2688 12.5227 10.3648 12.2453 10.3648 11.936ZM7.1488 2.016C6.99947 2.432 6.7968 2.848 6.5408 3.264C6.2848 3.68 5.9808 4.09067 5.6288 4.496C6.00213 4.88 6.4608 5.248 7.0048 5.6C7.55947 5.952 8.15147 6.26667 8.7808 6.544C8.8448 6.576 8.87147 6.61867 8.8608 6.672C8.8608 6.72533 8.85013 6.77867 8.8288 6.832L8.5088 7.392C8.4768 7.44533 8.43947 7.48267 8.3968 7.504C8.35413 7.52533 8.2848 7.50933 8.1888 7.456C7.95413 7.34933 7.69813 7.22133 7.4208 7.072C7.15413 6.92267 6.8768 6.752 6.5888 6.56C6.3008 6.368 6.0128 6.16 5.7248 5.936C5.44747 5.712 5.18613 5.47733 4.9408 5.232C4.32213 5.84 3.63947 6.4 2.8928 6.912C2.1568 7.41333 1.4048 7.83467 0.6368 8.176C0.583467 8.19733 0.530133 8.21333 0.4768 8.224C0.423467 8.23467 0.3808 8.21333 0.3488 8.16L0.0288 7.6C-0.00319999 7.54667 -0.00853334 7.49333 0.0128 7.44C0.0448 7.376 0.0874667 7.33333 0.1408 7.312C1.5168 6.65067 2.69013 5.89333 3.6608 5.04C4.63147 4.18667 5.3888 3.2 5.9328 2.08C6.00747 1.93067 6.01813 1.824 5.9648 1.76C5.91147 1.696 5.81013 1.664 5.6608 1.664H0.9728C0.8448 1.664 0.7808 1.59467 0.7808 1.456V0.896C0.7808 0.768 0.855467 0.704 1.0048 0.704H6.0928C6.64747 0.704 7.0048 0.805333 7.1648 1.008C7.3248 1.2 7.31947 1.536 7.1488 2.016ZM11.3088 8.592C11.3088 8.74133 11.2341 8.816 11.0848 8.816H10.4288C10.2795 8.816 10.2048 8.74133 10.2048 8.592V0.224C10.2048 0.0746667 10.2795 0 10.4288 0H11.0848C11.2341 0 11.3088 0.0746667 11.3088 0.224V4.048H13.5168C13.5808 4.048 13.6341 4.06933 13.6768 4.112C13.7301 4.144 13.7568 4.192 13.7568 4.256V4.8C13.7568 4.85333 13.7301 4.90133 13.6768 4.944C13.6341 4.98667 13.5808 5.008 13.5168 5.008H11.3088V8.592Z" fill="black"/>
</svg>
